<?xml version="1.0" standalone="no"?>
<!DOCTYPE svg PUBLIC "-//W3C//DTD SVG 20010904//EN"
 "http://www.w3.org/TR/2001/REC-SVG-20010904/DTD/svg10.dtd">
<svg version="1.0" xmlns="http://www.w3.org/2000/svg"
 width="600.000000pt" height="600.000000pt" viewBox="0 0 600.000000 600.000000"
 preserveAspectRatio="xMidYMid meet">
<metadata>
Created by potrace 1.11, written by Peter Selinger 2001-2013
</metadata>
<g transform="translate(0.000000,600.000000) scale(0.100000,-0.100000)"
fill="#000000" stroke="none">
<path d="M3030 5186 c0 -16 -52 -29 -61 -15 -7 12 -59 1 -59 -12 0 -5 -25 -9
-55 -9 -57 0 -76 -16 -27 -22 15 -2 -13 -8 -62 -12 -91 -9 -358 -2 -409 10
-25 6 -28 4 -25 -12 2 -10 14 -21 28 -25 21 -6 19 -7 -13 -8 -21 -1 -45 5 -53
13 -19 19 -18 22 9 31 17 5 18 8 7 12 -8 3 -18 10 -21 15 -3 5 -24 4 -50 -2
-24 -6 -51 -12 -59 -12 -9 0 -20 -9 -25 -21 -14 -30 -122 -87 -166 -87 -55 0
-74 -28 -74 -106 0 -45 -4 -64 -12 -64 -18 0 -16 -43 8 -135 16 -62 21 -118
23 -255 1 -96 6 -183 10 -192 10 -22 46 -24 46 -3 0 8 8 15 18 14 10 0 12 -3
5 -6 -7 -2 -13 -11 -13 -19 0 -8 -5 -14 -11 -14 -8 0 -10 -26 -7 -90 6 -91 12
-115 27 -92 10 16 19 5 49 -54 11 -22 51 -70 89 -107 140 -138 216 -177 344
-179 103 -1 171 17 227 63 48 39 61 61 111 187 10 26 27 66 36 88 23 56 102
133 151 147 21 6 83 11 137 11 83 0 100 -2 108 -17 6 -9 17 -17 26 -17 16 0
27 -8 78 -58 13 -13 49 -74 81 -135 31 -62 66 -121 77 -132 34 -32 85 -64 110
-69 12 -2 45 -10 73 -16 80 -18 241 22 304 75 52 43 175 176 204 219 42 63 75
158 58 164 -7 2 -12 24 -12 53 0 42 3 49 20 49 18 0 20 -7 20 -55 0 -30 5 -55
10 -55 6 0 10 27 10 61 0 46 4 65 17 74 13 10 17 35 21 124 3 78 1 111 -7 111
-6 0 -11 -9 -11 -19 0 -11 -4 -23 -10 -26 -6 -4 -10 13 -10 44 0 39 4 51 15
51 20 0 19 27 -2 38 -15 9 -15 18 4 133 21 129 20 149 -3 149 -9 0 -14 12 -14
35 0 39 -21 99 -40 110 -6 4 -34 9 -63 12 -68 7 -98 19 -91 37 8 21 -16 30
-30 11 -12 -16 -15 -16 -61 4 -68 30 -129 27 -210 -9 -37 -17 -90 -34 -118
-39 -29 -6 -74 -15 -100 -21 -26 -7 -96 -10 -156 -8 -87 2 -111 6 -125 21 -13
13 -27 16 -50 12 -21 -4 -48 1 -79 14 -27 12 -66 21 -87 21 -21 0 -45 7 -54
15 -18 19 -26 19 -26 1z m870 -31 c0 -9 -9 -15 -22 -15 -22 1 -23 1 -4 15 25
19 26 19 26 0z m-764 -31 c13 -14 24 -35 24 -46 0 -30 28 -58 59 -58 23 0 58
-33 54 -51 -1 -3 34 -5 77 -5 44 0 77 2 75 5 -14 13 37 30 90 31 73 0 85 -7
78 -44 l-6 -28 -71 5 c-39 2 -98 1 -131 -3 -109 -15 -415 -23 -415 -11 0 6
-14 11 -31 11 -17 0 -28 4 -24 10 4 6 -12 10 -39 10 -25 0 -46 4 -46 9 0 12
29 23 42 15 6 -4 13 -2 17 3 9 14 61 25 61 13 0 -5 18 -10 40 -10 22 0 40 3
40 8 0 4 15 8 33 9 36 3 57 25 57 60 0 21 -2 23 -22 12 -22 -12 -22 -12 -3
-20 17 -6 16 -8 -7 -8 -16 -1 -28 4 -28 10 0 6 -7 9 -15 5 -12 -4 -15 4 -15
38 0 47 7 54 54 55 19 1 37 -8 52 -25z m-278 -46 c-7 -20 -36 -21 -54 -4 -14
15 -12 16 21 16 25 0 35 -4 33 -12z m-108 -5 c0 -5 -39 -7 -87 -5 -156 4 -171
8 -40 10 70 1 127 -1 127 -5z m50 -145 c0 -22 -4 -23 -55 -20 -45 3 -52 6 -41
17 11 12 31 17 84 24 6 0 12 -9 12 -21z m1455 -37 c19 -10 33 -20 31 -22 -2
-2 0 -42 4 -89 8 -88 2 -110 -29 -110 -13 0 -13 2 -2 9 14 9 9 68 -10 103 -19
35 -129 77 -239 92 -74 10 -92 14 -60 16 25 0 63 5 85 9 77 16 182 12 220 -8z
m-813 -3 c4 -10 21 -10 79 -1 48 8 122 9 214 5 l140 -7 -115 -7 c-112 -8 -206
-25 -460 -87 -147 -36 -300 -42 -422 -15 -126 27 -250 44 -328 44 -46 0 -70 4
-61 9 7 5 43 7 79 5 35 -2 81 0 101 6 22 5 51 6 75 0 40 -9 66 -4 66 11 0 5
-10 10 -22 10 -61 4 94 18 217 19 77 2 174 6 215 10 130 12 218 11 222 -2z
m487 -102 c8 -5 17 -3 22 5 8 12 11 11 20 -3 12 -22 29 -23 29 -3 0 20 26 19
91 -4 118 -41 119 -42 119 -84 0 -34 -4 -40 -36 -53 -38 -16 -82 -12 -119 11
-64 39 -456 68 -515 38 -14 -7 -45 -13 -69 -13 -24 0 -61 -5 -82 -11 -20 -7
-45 -9 -54 -5 -14 5 -11 12 21 37 33 26 45 30 75 25 24 -4 47 0 65 9 16 8 36
12 46 9 9 -2 19 0 23 6 3 5 41 10 86 10 62 0 79 -3 79 -14 0 -18 33 -30 60
-21 15 5 20 15 20 41 l0 34 53 -3 c29 -2 58 -7 66 -11z m-1825 -19 c-82 -36
-116 -70 -120 -123 -3 -41 8 -60 19 -31 3 6 6 -5 6 -25 1 -39 -7 -46 -27 -26
-18 18 -16 162 3 198 15 29 17 30 93 30 l77 -1 -51 -22z m311 -48 c6 -4 57 -5
115 -3 98 4 108 3 129 -17 19 -18 25 -19 32 -8 7 12 13 12 41 0 18 -8 56 -14
85 -13 28 1 55 -2 58 -8 4 -7 -38 -10 -127 -9 -211 2 -450 -36 -554 -87 -19
-10 -51 -14 -90 -12 l-59 3 1 38 c1 21 6 43 11 48 14 14 152 69 173 69 10 0
21 -6 23 -12 3 -8 6 -6 6 5 1 20 12 22 30 5 11 -10 14 -10 18 -1 3 8 14 11 29
7 13 -4 24 -2 24 4 0 11 38 5 55 -9z m873 -50 c4 -19 -71 -29 -212 -28 -133 1
-153 15 -31 23 55 3 123 10 150 15 67 12 89 9 93 -10z m-153 -319 c-3 -5 -18
-10 -33 -9 l-27 1 25 8 c35 11 42 11 35 0z m-1103 -162 c-2 -10 -8 -18 -12
-18 -5 0 -11 -10 -13 -22 -4 -20 -4 -19 -6 5 0 15 4 27 9 27 6 0 10 17 11 38
1 32 2 34 8 12 4 -14 5 -33 3 -42z m255 -254 c-3 -3 -12 -4 -19 -1 -8 3 -5 6
6 6 11 1 17 -2 13 -5z m36 -28 c6 -15 -1 -26 -15 -26 -4 0 -8 9 -8 20 0 23 15
27 23 6z"/>
<path d="M3042 4069 c-40 -42 -67 -90 -135 -239 -56 -123 -134 -231 -191 -264
-77 -45 -202 -34 -324 28 -66 34 -195 141 -205 172 -5 13 -14 24 -19 24 -15 0
-72 65 -95 107 -10 18 -20 33 -24 33 -10 0 -19 -44 -10 -50 20 -14 50 -183 44
-247 -4 -42 -1 -61 17 -95 20 -38 50 -121 50 -139 0 -6 -313 82 -350 98 -8 3
-18 6 -22 5 -11 -2 -342 109 -354 119 -6 5 -13 7 -16 4 -2 -3 -27 2 -54 10
-27 8 -61 15 -75 15 -14 0 -34 7 -45 15 -10 8 -24 15 -31 15 -6 0 -24 5 -40
11 -27 11 -36 14 -76 17 -10 1 -16 5 -13 10 2 4 -13 8 -34 8 -46 2 -300 76
-294 86 3 4 -1 5 -9 2 -8 -3 -41 4 -73 14 -33 11 -88 27 -124 36 -36 9 -116
33 -178 52 -83 27 -116 33 -126 25 -7 -6 -15 -9 -18 -6 -10 11 -26 -22 -46
-97 -11 -43 -17 -78 -12 -78 5 0 11 6 13 13 3 6 6 -3 6 -20 1 -18 6 -33 12
-33 5 0 7 -5 3 -11 -4 -7 0 -9 14 -5 27 9 74 -3 65 -17 -4 -6 -1 -7 6 -2 7 4
64 -7 127 -25 71 -21 110 -36 102 -41 -14 -9 -18 -7 76 -39 64 -22 111 -26
101 -10 -3 6 -1 10 4 10 6 0 11 -7 11 -15 0 -8 5 -15 10 -15 6 0 10 5 10 10 0
6 5 10 10 10 6 0 10 -8 10 -17 0 -12 3 -14 8 -6 9 14 180 -31 197 -51 6 -7 41
-23 79 -36 56 -18 70 -20 77 -9 7 11 9 10 9 -3 0 -21 16 -24 24 -5 5 9 7 9 12
-1 3 -6 10 -10 14 -7 10 6 100 -16 100 -25 0 -3 16 -6 37 -8 34 -2 114 -25
136 -39 6 -4 22 -8 36 -9 44 -4 114 -21 156 -36 22 -8 63 -18 90 -23 28 -4 55
-11 60 -15 16 -13 535 -161 544 -155 5 3 39 -32 75 -77 l66 -83 -68 -21 c-37
-11 -96 -24 -132 -28 -36 -4 -137 -21 -225 -39 l-160 -32 0 43 c0 23 3 42 8
42 11 0 9 68 -3 91 -6 10 -19 19 -30 19 -10 0 -20 5 -22 12 -4 10 -14 9 -48
-1 -29 -9 -45 -9 -49 -2 -9 14 -53 1 -47 -14 3 -8 -6 -15 -22 -18 -15 -3 -28
-1 -30 4 -2 5 -8 9 -14 9 -6 0 -8 -6 -5 -14 4 -9 -4 -16 -21 -21 -15 -3 -36
-8 -47 -12 l-20 -5 20 17 20 17 -20 -7 c-11 -3 -32 -9 -47 -12 -15 -3 -25 -10
-22 -15 4 -6 2 -13 -3 -17 -6 -3 -14 -17 -18 -30 -5 -18 -4 -22 6 -16 9 6 11
2 6 -14 -3 -13 -3 -21 -1 -18 3 3 17 -6 31 -19 14 -13 29 -22 33 -19 4 3 18
-11 31 -30 13 -20 35 -38 48 -42 l24 -6 -24 -18 c-20 -15 -92 -44 -134 -54 -5
-1 -23 -8 -40 -14 -16 -7 -57 -19 -90 -26 -124 -27 -214 -49 -328 -81 -66 -19
-133 -34 -151 -34 -18 0 -88 -21 -157 -46 -68 -25 -139 -50 -158 -56 -37 -11
-104 -76 -96 -95 2 -7 0 -15 -5 -18 -6 -4 -10 -21 -10 -38 0 -24 -3 -28 -10
-17 -9 13 -10 13 -9 0 2 -29 15 -65 24 -65 17 -1 56 -26 51 -33 -2 -4 14 -8
36 -9 22 0 45 -6 51 -12 6 -6 19 -11 28 -11 14 0 16 -6 9 -35 -5 -23 -4 -33 2
-29 6 4 8 1 6 -7 -3 -8 6 -24 19 -36 12 -12 23 -27 23 -32 0 -22 -23 -60 -33
-54 -6 3 -7 1 -3 -5 3 -6 2 -13 -3 -16 -4 -3 -8 -17 -8 -30 0 -18 7 -28 28
-35 20 -7 31 -6 35 1 5 7 2 8 -6 3 -9 -6 -11 -4 -6 4 5 7 15 10 23 7 8 -3 11
-1 8 4 -10 16 74 64 115 65 21 0 36 3 34 7 -6 9 40 16 114 17 38 0 62 -4 62
-10 0 -6 6 -9 14 -6 8 3 17 -1 20 -9 3 -8 12 -14 21 -14 8 0 20 -12 25 -26 14
-35 13 -174 -1 -174 -6 0 -8 -9 -4 -20 4 -11 2 -20 -4 -20 -6 0 -8 -6 -5 -14
3 -8 1 -17 -5 -20 -6 -4 -8 -13 -4 -21 3 -8 1 -15 -5 -15 -5 0 -7 -11 -4 -25
2 -15 0 -25 -7 -25 -7 0 -9 -9 -5 -25 3 -14 2 -25 -4 -25 -5 0 -10 -30 -10
-68 0 -128 -2 -164 -9 -176 -4 -6 -6 -38 -5 -71 2 -43 0 -56 -8 -45 -7 11 -9
1 -8 -37 0 -29 4 -50 9 -47 8 4 39 -86 39 -114 0 -10 7 -12 25 -8 14 4 25 2
25 -4 0 -5 -4 -10 -10 -10 -17 0 -20 -44 -6 -90 9 -30 19 -45 30 -44 9 1 13
-2 10 -7 -6 -10 11 -11 43 -3 13 4 23 11 23 16 0 5 -10 6 -22 2 -13 -3 -20 -3
-17 0 15 15 113 35 120 25 8 -14 49 -2 49 15 0 6 40 32 90 56 49 24 90 48 90
52 0 18 66 39 156 49 54 6 133 22 176 35 43 14 83 22 90 18 6 -4 8 -3 5 3 -8
13 20 26 35 16 7 -3 8 -1 4 5 -7 11 6 17 27 13 5 -1 6 3 2 9 -6 10 9 15 30 10
5 -1 7 1 4 5 -4 3 15 27 43 53 89 84 148 219 148 342 0 36 4 70 9 76 6 5 4 36
-4 77 -8 41 -9 70 -3 73 11 7 48 -24 48 -40 0 -34 135 -111 150 -85 4 5 21 11
39 12 28 2 35 9 56 52 35 71 40 106 21 144 -9 17 -13 31 -9 31 5 0 2 4 -5 8
-7 5 -14 22 -15 38 -1 16 -6 32 -11 35 -5 4 -15 53 -23 110 -14 102 -58 236
-95 290 -9 14 -14 30 -10 34 4 5 2 5 -5 1 -16 -9 -53 46 -53 81 0 15 -14 48
-30 73 -34 51 -35 56 -18 91 10 21 31 31 127 59 94 27 158 52 200 78 2 1 -11
23 -29 50 -37 51 -32 48 75 -44 191 -165 366 -240 510 -218 22 3 78 7 125 9
108 4 100 3 100 19 0 16 41 29 63 20 9 -3 21 3 29 15 8 11 37 35 66 55 29 19
66 48 82 65 44 43 136 121 144 121 10 0 -47 -81 -73 -104 -11 -11 -21 -24 -21
-31 0 -6 42 -24 93 -40 129 -40 140 -60 87 -147 -16 -26 -30 -62 -30 -78 0
-16 -6 -33 -14 -37 -14 -8 -16 -12 -16 -34 0 -5 -4 -7 -10 -4 -5 3 -10 0 -10
-8 0 -8 -7 -21 -16 -28 -14 -11 -30 -40 -40 -74 -2 -5 -13 -37 -24 -69 -12
-33 -26 -97 -32 -143 -7 -45 -15 -83 -19 -83 -4 0 -5 -10 -1 -22 4 -16 2 -19
-8 -13 -8 5 -11 4 -7 -2 10 -16 -4 -74 -16 -66 -6 3 -7 1 -3 -6 4 -6 2 -27 -5
-46 -11 -29 -10 -43 4 -86 9 -29 14 -56 11 -60 -2 -4 5 -10 16 -14 11 -4 17
-11 14 -17 -4 -6 1 -8 15 -3 11 3 21 2 21 -3 0 -6 10 -8 22 -4 15 3 19 2 14
-7 -12 -19 40 -8 65 14 13 12 19 14 14 5 -13 -23 61 57 80 86 34 53 49 -1 24
-88 -5 -17 -5 -36 0 -42 4 -6 11 -43 14 -81 8 -90 30 -163 69 -228 17 -29 31
-58 31 -64 0 -7 12 -23 26 -35 l26 -23 -25 30 c-13 17 -3 10 22 -14 26 -25 45
-47 43 -49 -8 -8 34 -34 44 -27 6 3 14 -2 19 -11 5 -9 12 -15 15 -15 21 3 27
0 21 -11 -5 -8 -2 -9 9 -5 9 3 42 -3 74 -14 32 -11 101 -26 153 -34 101 -14
175 -39 165 -56 -4 -5 -3 -8 2 -7 4 1 42 -14 83 -33 41 -20 85 -39 97 -43 14
-4 20 -12 16 -22 -3 -8 1 -14 11 -14 9 0 16 5 16 10 0 6 4 10 10 10 5 0 7 -6
4 -13 -7 -20 104 -51 123 -35 11 8 12 7 7 -6 -5 -12 0 -16 19 -16 33 0 41 12
71 102 58 171 59 184 36 441 -11 127 -27 257 -36 287 -32 112 -35 137 -32 213
3 72 6 81 32 103 18 16 35 23 47 19 11 -4 19 -2 19 5 0 6 12 9 28 7 15 -2 36
-1 48 4 47 17 277 -72 259 -101 -8 -14 8 -18 33 -9 28 11 29 47 2 91 -20 34
-27 74 -11 64 13 -8 45 79 38 104 -4 15 0 20 13 20 11 0 22 5 25 10 3 6 16 10
28 10 12 0 45 11 73 24 39 18 54 31 63 57 6 18 7 35 3 38 -5 3 -17 27 -26 53
-30 78 -39 83 -299 174 -53 19 -107 34 -120 34 -12 0 -71 14 -132 31 -60 16
-127 33 -147 36 -21 3 -38 8 -38 12 0 3 -12 7 -28 8 -84 4 -389 102 -384 122
1 7 -2 10 -7 7 -5 -4 -12 -2 -15 3 -4 5 2 12 11 15 10 4 31 25 47 47 17 25 31
37 35 30 12 -18 51 32 58 73 4 23 2 36 -5 36 -6 0 -9 7 -6 15 4 10 0 15 -11
15 -9 0 -13 -4 -10 -10 3 -5 -1 -10 -10 -10 -9 0 -14 4 -11 9 4 5 -3 7 -14 4
-16 -4 -19 -2 -14 11 3 9 1 16 -5 16 -6 0 -11 -4 -11 -10 0 -5 -4 -10 -10 -10
-5 0 -10 6 -10 14 0 8 -7 17 -16 20 -15 6 -15 4 -3 -11 13 -15 12 -16 -11 -10
-14 4 -29 7 -34 7 -4 0 -6 6 -3 14 4 9 -8 17 -36 26 -30 9 -42 9 -45 1 -2 -6
-8 -11 -13 -11 -4 0 -6 6 -3 14 6 15 -45 33 -55 19 -3 -5 -22 -17 -42 -26 -20
-9 -40 -24 -43 -33 -9 -23 -7 -84 2 -84 4 0 6 -18 4 -40 -2 -22 -8 -40 -12
-40 -5 0 -77 14 -160 31 -83 17 -179 33 -212 37 l-61 7 47 55 c25 30 68 81 94
112 26 32 55 58 64 58 9 0 20 4 23 10 3 6 -1 7 -9 4 -9 -3 -16 -2 -16 2 0 5
78 31 173 58 94 26 224 64 287 84 63 20 134 36 157 36 22 1 39 5 35 10 -3 5 3
6 13 3 9 -4 23 -2 31 3 7 6 23 12 36 14 13 1 30 6 37 10 7 5 36 10 64 12 57 4
174 39 197 59 8 7 42 20 75 29 33 9 88 27 123 38 53 19 65 20 72 8 7 -12 17
-11 67 3 87 24 115 36 108 46 -7 12 131 55 151 47 8 -3 13 -2 10 3 -8 12 79
35 95 26 8 -5 10 -4 5 3 -4 7 6 14 26 20 26 6 34 14 36 35 2 15 7 25 12 22 9
-6 -25 128 -39 153 -6 9 -11 13 -11 8 0 -5 -7 -3 -15 4 -11 9 -34 6 -112 -19
-164 -51 -213 -63 -229 -57 -10 4 -12 2 -8 -6 5 -7 -1 -9 -19 -6 -15 3 -24 2
-22 -3 7 -10 -103 -42 -122 -35 -8 3 -12 2 -9 -3 7 -11 -179 -65 -199 -57 -10
4 -14 2 -9 -5 5 -8 -3 -10 -25 -7 -17 2 -31 1 -31 -4 0 -4 -13 -8 -28 -8 -15
0 -32 -4 -38 -9 -10 -10 -237 -82 -265 -84 -11 -1 -19 -5 -19 -9 0 -4 -8 -8
-19 -8 -10 0 -24 -7 -31 -15 -7 -8 -20 -15 -29 -15 -15 0 -303 -80 -347 -96
-16 -7 -17 -5 -7 7 7 8 17 45 23 83 6 41 20 82 35 104 28 41 32 62 11 62 -28
0 -28 122 0 308 8 53 -8 56 -28 5 -21 -52 -129 -196 -202 -268 -140 -138 -349
-209 -458 -156 -85 41 -163 134 -269 325 -39 69 -95 138 -140 172 -8 6 -36 11
-62 11 -42 1 -51 -3 -85 -38z m232 -332 c72 -33 94 -49 223 -162 115 -101 121
-105 180 -131 69 -31 79 -55 47 -111 -45 -77 -104 -202 -104 -218 0 -52 -225
-450 -254 -450 -28 0 20 314 80 524 39 135 36 143 -63 196 -28 15 -73 47 -100
71 -95 87 -163 83 -269 -16 -39 -38 -89 -77 -110 -88 -70 -36 -71 -49 -8 -229
31 -87 71 -219 90 -293 46 -183 45 -210 -8 -152 -86 93 -182 248 -282 453 -31
63 -70 135 -87 161 -38 57 -31 77 39 112 32 16 89 68 171 155 131 139 214 199
296 212 53 8 76 3 159 -34z m2221 -157 c-3 -5 -14 -10 -23 -9 -14 0 -13 2 3 9
27 11 27 11 20 0z m-125 -34 c0 -3 -4 -8 -10 -11 -5 -3 -10 -1 -10 4 0 6 5 11
10 11 6 0 10 -2 10 -4z m-1340 -36 c0 -5 -12 -35 -26 -67 -39 -87 -124 -306
-124 -318 0 -22 -73 -162 -107 -205 -41 -51 -66 -75 -138 -129 -53 -40 -186
-114 -192 -107 -3 2 20 42 50 88 60 91 93 157 162 323 61 150 108 227 185 305
73 75 190 142 190 110z m-1642 -87 c116 -55 240 -212 317 -402 23 -55 88 -169
105 -181 4 -3 23 -30 42 -61 20 -30 50 -72 68 -92 18 -20 29 -37 24 -37 -4 0
-53 23 -108 50 -199 99 -280 192 -390 449 -27 62 -71 154 -97 203 -27 49 -49
91 -49 94 0 11 36 2 88 -23z m782 -30 c1 -27 7 -59 15 -73 24 -42 19 -50 -30
-50 -25 0 -45 2 -45 4 0 2 7 17 15 32 8 16 15 53 15 82 0 39 4 52 15 52 11 0
15 -12 15 -47z m-60 -10 c-1 -24 -2 -26 -11 -10 -5 9 -7 22 -4 27 10 17 15 11
15 -17z m101 -10 c-9 -16 -10 -14 -11 12 0 21 3 26 11 18 8 -8 8 -16 0 -30z
m132 -102 c20 -12 37 -30 37 -37 0 -11 -9 -8 -33 10 -19 15 -39 26 -45 26 -7
0 -12 7 -12 16 0 18 1 17 53 -15z m-351 -25 c-20 -19 -40 -32 -45 -29 -11 7 2
22 37 44 47 29 50 23 8 -15z m-727 -28 c16 -24 22 -38 14 -31 -15 12 -53 73
-46 73 2 0 17 -19 32 -42z m1089 -39 c4 -4 7 -12 4 -19 -4 -13 -88 44 -88 61
0 9 59 -20 84 -42z m-304 27 c0 -17 -69 -71 -78 -61 -4 3 11 22 33 40 46 40
45 39 45 21z m124 8 c20 -8 11 -24 -15 -24 -19 0 -25 11 -12 23 8 8 8 8 27 1z
m-863 -61 c13 -16 12 -17 -3 -4 -17 13 -22 21 -14 21 2 0 10 -8 17 -17z m729
-55 c-18 -15 -38 -24 -43 -21 -6 4 7 21 29 39 23 20 41 29 43 22 2 -7 -11 -24
-29 -40z m270 28 c25 -14 37 -26 31 -31 -13 -8 -72 24 -79 43 -5 17 0 15 48
-12z m20 -97 c0 -14 -12 -11 -48 11 -18 11 -30 25 -27 30 6 10 75 -27 75 -41z
m-250 29 c0 -7 -16 -23 -35 -36 -45 -29 -47 -6 -2 25 39 26 37 26 37 11z m240
-95 c0 -10 -8 -9 -35 4 -19 9 -35 23 -35 30 0 10 8 9 35 -4 19 -9 35 -23 35
-30z m-230 22 c0 -8 -13 -21 -30 -30 -40 -21 -42 3 -2 27 33 21 32 21 32 3z
m195 -57 c14 -6 25 -18 25 -25 0 -8 -6 -12 -12 -9 -7 3 -21 9 -30 12 -10 4
-18 13 -18 20 0 17 2 17 35 2z m-180 -8 c7 -11 -56 -42 -65 -33 -6 5 38 43 51
43 4 0 11 -5 14 -10z m-6 -81 c-18 -11 -39 -11 -39 -1 0 14 44 31 49 20 2 -6
-3 -14 -10 -19z m185 25 c9 -3 16 -12 16 -20 0 -16 -42 -4 -48 14 -4 13 8 15
32 6z m9 -54 c8 0 8 -3 0 -11 -13 -13 -43 -5 -43 12 0 6 7 8 16 5 9 -3 21 -6
27 -6z m-193 -21 c-17 -14 -26 -17 -28 -9 -5 14 16 30 38 30 10 -1 7 -7 -10
-21z m180 -39 c8 -5 11 -12 8 -16 -10 -9 -38 3 -38 16 0 12 10 13 30 0z m-160
-9 c0 -11 -31 -24 -39 -16 -3 3 1 10 9 15 19 12 30 12 30 1z m160 -51 c0 -5
-4 -10 -10 -10 -5 0 -10 5 -10 10 0 6 5 10 10 10 6 0 10 -4 10 -10z m-2175
-227 c-17 -19 -31 23 -14 43 12 15 14 15 19 -7 3 -13 1 -29 -5 -36z m3955 37
c0 -5 -5 -10 -11 -10 -5 0 -7 5 -4 10 3 6 8 10 11 10 2 0 4 -4 4 -10z m-3660
-75 c0 -8 -5 -15 -11 -15 -6 0 -9 -6 -6 -12 6 -19 -12 -50 -25 -42 -6 4 -8 3
-4 -4 3 -6 2 -13 -4 -17 -5 -3 -10 -17 -10 -31 0 -31 -36 -48 -65 -29 -20 12
-34 47 -18 44 26 -5 42 2 36 16 -7 20 26 57 44 50 8 -2 11 0 8 5 -3 6 -1 10 6
10 8 0 7 5 -2 17 -10 11 -10 14 -1 9 6 -4 12 -2 12 3 0 6 9 11 20 11 11 0 20
-7 20 -15z m740 -97 c-27 -71 -26 -84 16 -164 19 -37 33 -76 31 -86 -3 -10 -1
-16 4 -13 4 3 11 -7 15 -22 3 -15 10 -41 15 -57 5 -16 9 -49 9 -73 0 -47 -9
-55 -61 -57 -16 -1 -29 -4 -29 -8 0 -5 -6 -8 -14 -8 -7 0 -19 -7 -26 -16 -11
-12 -10 -30 3 -101 9 -47 14 -90 10 -97 -3 -6 -3 -8 2 -4 12 11 45 -63 45
-102 0 -86 -52 -199 -122 -266 -101 -97 -187 -140 -318 -159 -25 -3 -57 -8
-71 -11 -23 -4 -28 0 -37 25 -9 25 -17 31 -40 31 -26 0 -30 4 -34 34 -3 31 0
36 29 50 37 17 43 47 18 80 -19 25 -19 62 0 115 13 38 13 44 -5 74 -11 18 -22
57 -26 88 -6 54 -6 55 30 83 26 19 41 25 49 18 14 -11 97 -11 97 0 0 5 9 8 21
8 11 0 18 -4 15 -8 -3 -5 1 -9 9 -9 8 0 15 6 15 13 0 7 8 10 21 7 13 -4 26 0
33 9 6 8 45 31 86 51 83 40 150 90 150 113 0 8 -8 31 -19 52 -23 46 -33 128
-32 254 1 103 12 148 35 148 8 0 18 4 21 10 4 6 -1 7 -12 4 -13 -5 -12 -2 5
10 12 10 27 14 34 10 6 -4 8 -3 4 4 -6 10 8 20 31 21 9 1 7 -14 -7 -51z m1931
31 c38 -27 60 -70 59 -117 0 -20 0 -73 0 -117 0 -102 -8 -159 -32 -214 -18
-42 -18 -45 -1 -70 10 -14 17 -29 16 -32 -1 -4 5 -6 15 -5 9 0 16 -4 15 -10
-1 -7 5 -11 15 -10 9 0 16 -5 14 -12 -1 -8 2 -11 7 -8 12 8 122 -41 136 -61 8
-11 20 -14 38 -9 21 5 25 3 21 -9 -5 -11 0 -15 17 -15 19 0 21 2 9 10 -12 8
-11 10 6 10 11 0 24 -3 28 -7 11 -12 96 -14 96 -3 0 5 5 10 12 10 6 0 8 -3 5
-6 -4 -4 8 -14 26 -23 33 -17 47 -54 31 -89 -4 -10 -6 -22 -5 -29 1 -7 -7 -29
-18 -50 -17 -35 -18 -41 -4 -73 16 -38 13 -87 -8 -138 -13 -30 -12 -35 3 -46
10 -7 15 -16 11 -20 -4 -3 2 -5 13 -4 22 3 24 0 24 -43 0 -26 -3 -30 -19 -26
-27 7 -51 -11 -51 -39 0 -24 -2 -25 -47 -19 -164 23 -271 69 -368 157 -58 53
-92 107 -78 122 4 3 1 6 -6 6 -7 0 -9 5 -6 10 3 6 1 10 -5 10 -7 0 -9 8 -5 21
5 16 4 19 -5 14 -10 -6 -11 -1 -6 19 4 18 3 25 -4 21 -6 -4 -9 13 -9 50 1 30
6 58 10 61 5 3 9 14 9 25 0 11 5 17 10 14 6 -4 10 7 10 27 0 18 4 28 8 21 4
-6 7 28 7 75 0 81 -2 88 -22 97 -13 5 -23 13 -23 17 0 4 -6 5 -13 2 -7 -2 -24
-1 -37 4 -18 7 -25 18 -27 43 -3 45 6 101 16 95 4 -3 5 8 3 25 -2 16 0 29 6
29 5 0 12 16 15 34 8 49 37 107 50 99 5 -3 7 -1 4 5 -9 13 2 44 13 37 4 -3 4
12 0 32 -5 20 -6 41 -3 46 4 6 1 7 -7 2 -9 -6 -10 -2 -5 15 5 17 4 21 -6 15
-9 -6 -11 -2 -7 13 3 12 1 23 -6 26 -6 2 -3 5 7 5 11 1 32 -8 48 -20z m966
-40 c2 -23 -19 -34 -44 -24 -16 6 -16 8 6 26 30 24 36 24 38 -2z m-3096 -66
c12 -14 12 -16 -1 -9 -9 5 -8 2 2 -7 13 -10 18 -31 18 -88 1 -41 2 -95 2 -121
1 -26 4 -45 9 -43 7 5 17 -46 17 -92 1 -23 -52 -73 -76 -73 -7 0 -12 -4 -12
-9 0 -9 -63 -35 -85 -36 -5 0 -13 -3 -16 -8 -11 -15 -122 -27 -160 -17 -33 9
-74 40 -53 40 4 0 0 6 -10 13 -20 14 -45 160 -33 191 6 16 9 16 36 -3 30 -21
101 -134 118 -186 13 -39 44 -40 54 -2 4 16 3 25 -2 21 -8 -4 -13 24 -12 64 1
6 -4 12 -9 12 -6 0 -8 7 -4 15 3 8 2 15 -2 15 -4 0 -25 32 -46 71 -45 84 -54
161 -22 184 33 24 155 67 195 69 22 0 37 4 34 9 -9 15 45 6 58 -10z m2379 3
c69 -17 143 -42 181 -61 27 -15 29 -19 29 -77 0 -51 -5 -69 -29 -107 -44 -68
-69 -129 -77 -188 -6 -50 -5 -53 15 -53 11 0 21 5 21 11 0 5 5 7 12 3 7 -5 8
-3 4 5 -10 15 13 73 25 65 5 -3 6 3 2 12 -4 11 -3 15 4 11 7 -5 9 0 6 12 -5
20 53 95 67 86 5 -3 12 0 16 6 5 8 3 9 -7 4 -12 -8 -12 -6 0 9 11 13 16 14 22
4 11 -17 12 -101 1 -94 -4 2 -6 -11 -4 -30 3 -20 0 -34 -7 -34 -6 0 -8 -7 -5
-15 4 -8 -1 -17 -10 -21 -9 -3 -14 -10 -11 -14 2 -4 -5 -16 -16 -26 -36 -33
-154 -20 -267 28 -18 8 -29 17 -25 21 3 4 -1 7 -11 7 -24 0 -67 30 -59 43 3 5
1 7 -5 3 -20 -12 -24 14 -12 82 6 37 14 117 19 179 10 150 15 155 121 129z
m-3183 -802 c-3 -3 -12 -4 -19 -1 -8 3 -5 6 6 6 11 1 17 -2 13 -5z m246 -301
c21 -24 1 -53 -37 -53 -29 0 -37 27 -10 37 8 3 13 12 10 19 -8 20 18 17 37 -3z
m32 -87 c0 -22 -14 -29 -34 -17 -19 12 -6 43 16 39 10 -2 18 -12 18 -22z"/>
</g>
</svg>
